<?xml version="1.0" encoding="utf-8"?>
<!-- Generator: Adobe Illustrator 19.0.0, SVG Export Plug-In . SVG Version: 6.00 Build 0)  -->
<svg version="1.1" id="Capa_1" xmlns="http://www.w3.org/2000/svg" xmlns:xlink="http://www.w3.org/1999/xlink" x="0px" y="0px"
	 viewBox="0 0 32 32" style="enable-background:new 0 0 32 32;" xml:space="preserve">
<style type="text/css">
	.st0{fill:#01E6C6;}
	.st1{fill:#053B45;}
</style>
<g id="XMLID_3_">
	<g id="XMLID_21_">
		<path id="XMLID_25_" class="st0" d="M30.79,30.484c0.288-0.685,0.577-1.37,0.865-2.054c0.279-0.662-1.495-0.195-1.671-0.097
			c-1.18,0.658-2.36,1.317-3.54,1.975c0.531,0.077,1.063,0.155,1.594,0.232c1.151-1.633,2.302-3.265,3.453-4.898
			c0.535-0.758-1.346-0.382-1.594-0.232c-2.763,1.659-5.526,3.318-8.29,4.978c0.531,0.077,1.063,0.155,1.594,0.232
			c2.706-2.844,5.411-5.689,8.117-8.533c0.617-0.649-1.491-0.326-1.787-0.105c-3.886,2.897-7.773,5.794-11.659,8.691
			c0.596,0.035,1.191,0.07,1.787,0.105c3.944-4.214,7.888-8.427,11.832-12.641c0.596-0.637-1.472-0.363-1.787-0.105
			c-5.153,4.214-10.305,8.427-15.458,12.641c0.596,0.035,1.191,0.07,1.787,0.105c5.124-5.32,10.248-10.64,15.372-15.959
			c0.59-0.613-1.458-0.383-1.787-0.105c-3.225,2.718-6.446,5.441-9.66,8.171c-2.857,2.426-6.758,4.843-9.047,7.845
			c-0.573,0.751,1.371,0.35,1.594,0.232c3.305-1.734,6.35-6.275,8.92-8.903c3.333-3.408,6.659-6.822,9.98-10.241
			c0.591-0.609-1.457-0.382-1.787-0.105c-7.513,6.294-15.027,12.588-22.54,18.882c0.596,0.035,1.191,0.07,1.787,0.105
			c7.484-7.426,14.968-14.853,22.452-22.279C31.9,7.841,29.88,8.01,29.531,8.313c-8.55,7.426-17.099,14.853-25.649,22.279
			c0.596,0.035,1.191,0.07,1.787,0.105c8.607-8.691,17.215-17.381,25.822-26.072c0.577-0.582-1.437-0.418-1.787-0.105
			C20.003,13.185,10.301,21.85,0.6,30.514c0.596,0.035,1.191,0.07,1.787,0.105c9.621-9.648,20.165-18.87,29.077-29.17
			c0.57-0.659-1.468-0.397-1.787-0.105c-9.694,8.843-19.388,17.687-29.082,26.53c0.596,0.035,1.191,0.07,1.787,0.105
			c8.664-8.875,17.329-17.75,25.993-26.624c0.574-0.588-1.439-0.421-1.787-0.105C17.898,9.124,9.207,16.998,0.516,24.872
			c0.596,0.035,1.191,0.07,1.787,0.105C9.73,17.156,17.157,9.335,24.583,1.514c0.572-0.602-1.444-0.422-1.787-0.105
			C15.37,8.255,7.943,15.102,0.516,21.949c0.596,0.035,1.191,0.07,1.787,0.105c6.294-6.873,12.589-13.746,18.883-20.62
			c0.576-0.629-1.457-0.402-1.787-0.105C13.105,6.991,6.811,12.653,0.516,18.315c-0.898,0.808,1.222,0.543,1.648,0.24
			c2.945-2.096,5.385-5.63,7.83-8.264c2.736-2.947,5.465-5.899,8.189-8.857c0.58-0.63-1.46-0.394-1.787-0.105
			c-5.32,4.688-10.639,9.375-15.959,14.063c0.596,0.035,1.191,0.07,1.787,0.105c4.214-4.714,8.427-9.428,12.641-14.142
			c0.585-0.654-1.472-0.375-1.787-0.105C8.864,4.858,4.651,8.466,0.437,12.074c0.596,0.035,1.191,0.07,1.787,0.105
			c2.897-3.555,5.794-7.11,8.691-10.666c0.572-0.702-1.486-0.367-1.787-0.105C6.284,3.884,3.439,6.359,0.595,8.835
			C1.191,8.87,1.787,8.905,2.382,8.94C4.041,6.412,5.7,3.884,7.36,1.355c0.54-0.822-1.52-0.308-1.787-0.105
			C3.94,2.489,2.307,3.729,0.674,4.968c0.621-0.01,1.242-0.02,1.863-0.03c0.658-1.266,1.317-2.531,1.975-3.797
			c0.298-0.573-1.3-0.26-1.433-0.209c-0.685,0.263-1.37,0.527-2.054,0.79c-1.37,0.527-0.107,1.063,0.788,0.719
			c0.685-0.263,1.37-0.527,2.054-0.79C3.39,1.581,2.912,1.511,2.434,1.442C1.776,2.707,1.117,3.973,0.459,5.239
			C0.12,5.89,2.133,5.352,2.322,5.208C3.955,3.969,5.588,2.73,7.221,1.49C6.625,1.455,6.029,1.42,5.434,1.385
			C3.775,3.913,2.115,6.441,0.456,8.97c-0.523,0.797,1.503,0.353,1.787,0.105c2.844-2.476,5.688-4.951,8.532-7.427
			c-0.596-0.035-1.191-0.07-1.787-0.105c-2.897,3.555-5.794,7.11-8.691,10.666c-0.575,0.706,1.489,0.361,1.787,0.105
			C6.299,8.706,10.512,5.098,14.726,1.49c-0.596-0.035-1.191-0.07-1.787-0.105C8.726,6.099,4.512,10.813,0.298,15.527
			c-0.579,0.648,1.467,0.388,1.787,0.105c5.32-4.688,10.639-9.375,15.959-14.063c-0.596-0.035-1.191-0.07-1.787-0.105
			c-2.5,2.714-5.004,5.424-7.513,8.129c-2.561,2.76-5.149,6.531-8.227,8.722c0.549,0.08,1.099,0.16,1.648,0.24
			C8.459,12.893,14.753,7.231,21.047,1.569c-0.596-0.035-1.191-0.07-1.787-0.105C12.966,8.337,6.672,15.21,0.377,22.084
			c-0.571,0.624,1.453,0.413,1.787,0.105c7.427-6.847,14.853-13.694,22.28-20.541c-0.596-0.035-1.191-0.07-1.787-0.105
			C15.231,9.364,7.804,17.186,0.377,25.007c-0.575,0.606,1.447,0.414,1.787,0.105C10.855,17.238,19.546,9.364,28.237,1.49
			c-0.596-0.035-1.191-0.07-1.787-0.105C17.785,10.26,9.121,19.134,0.456,28.009c-0.573,0.587,1.438,0.424,1.787,0.105
			c9.694-8.843,19.388-17.687,29.082-26.53c-0.596-0.035-1.191-0.07-1.787-0.105c-8.912,10.3-19.456,19.522-29.077,29.17
			c-0.576,0.578,1.435,0.419,1.787,0.105c9.701-8.664,19.402-17.328,29.103-25.993c-0.596-0.035-1.191-0.07-1.787-0.105
			C20.958,13.347,12.35,22.037,3.743,30.728c-0.583,0.589,1.443,0.404,1.787,0.105c8.55-7.426,17.099-14.853,25.649-22.279
			c-0.596-0.035-1.191-0.07-1.787-0.105c-7.484,7.426-14.968,14.853-22.452,22.279c-0.59,0.586,1.446,0.391,1.787,0.105
			c7.513-6.294,15.027-12.588,22.54-18.882c-0.596-0.035-1.191-0.07-1.787-0.105c-2.859,2.943-5.721,5.882-8.588,8.818
			c-1.986,2.034-3.973,4.066-5.969,6.09c-1.027,1.042-2.56,3.125-3.679,3.713c0.531,0.077,1.063,0.155,1.594,0.232
			c2.391-3.137,6.528-5.674,9.521-8.214c2.965-2.516,5.934-5.026,8.908-7.532c-0.596-0.035-1.191-0.07-1.787-0.105
			c-5.124,5.32-10.248,10.64-15.372,15.959c-0.597,0.62,1.464,0.369,1.787,0.105c5.153-4.214,10.305-8.427,15.458-12.641
			c-0.596-0.035-1.191-0.07-1.787-0.105c-3.944,4.214-7.888,8.427-11.832,12.641c-0.616,0.658,1.495,0.323,1.787,0.105
			c3.886-2.897,7.773-5.794,11.659-8.691c-0.596-0.035-1.191-0.07-1.787-0.105c-2.706,2.844-5.411,5.689-8.117,8.533
			c-0.614,0.645,1.352,0.378,1.594,0.232c2.763-1.659,5.526-3.318,8.29-4.978c-0.531-0.077-1.063-0.155-1.594-0.232
			c-1.151,1.633-2.302,3.265-3.453,4.898c-0.541,0.767,1.354,0.367,1.594,0.232c1.18-0.658,2.36-1.317,3.54-1.975
			c-0.557-0.032-1.114-0.065-1.671-0.097c-0.288,0.685-0.577,1.37-0.865,2.054C28.48,31.333,30.525,31.112,30.79,30.484
			L30.79,30.484z"/>
	</g>
</g>
<polygon id="XMLID_1_" class="st1" points="8.905,7.369 8.905,24.723 24.767,16.012 "/>
</svg>
